<?xml version="1.0" encoding="utf-8"?>
<svg version="1.1" id="Calque_1" xmlns="http://www.w3.org/2000/svg" xmlns:xlink="http://www.w3.org/1999/xlink" x="0px" y="0px"
     viewBox="0 0 90 34" style="enable-background:new 0 0 90 34;" xml:space="preserve">
<style type="text/css">
	.st0{fill:#B4175E;}
</style>
  <g>
	<g>
		<polygon class="st0" points="45,0.3 46.5,4.8 51.2,4.8 47.4,7.5 48.8,12 45,9.2 41.2,12 42.6,7.5 38.8,4.8 43.5,4.8 		"/>
    <g>
			<path class="st0" d="M0,33.4l10.6-15.7H1.5v-2.6h14.3L5.2,30.9h10.5v2.6H0z"/>
      <path class="st0" d="M21.7,23h8v2.6h-8v5.3h9.5v2.6h-9.5h-2.8V15.2h2.8h9.5v2.6h-9.5L21.7,23z"/>
      <path class="st0" d="M53,33.4V15.2h2.9v18.3H53z"/>
      <path class="st0" d="M71.3,17.8h-4.7v15.7h-2.9V17.8H59v-2.6h12.3L71.3,17.8L71.3,17.8z"/>
      <path class="st0" d="M90,33.4h-2.9v-7.9h-9.8v7.9h-2.9V15.2h2.9V23h9.8v-7.8H90V33.4z"/>
      <path class="st0" d="M34.4,14.9L47,27.1v-12h2.9v18.6L37.2,21.5v12h-2.9V14.9z"/>
		</g>
	</g>
</g>
</svg>
