<svg xmlns="http://www.w3.org/2000/svg" viewBox="0 0 212.61 40.65"><title>un_logo</title><g id="Layer_2" data-name="Layer 2"><g id="un_svg_map"><g id="un_logo"><path id="N" d="M212,16.42a2.77,2.77,0,0,1,.57-1.84h-4.93c.8.8.57,1.49.57,2.53h0v6.2l-7.46-8.73h-4.48c.8.8.58,1.49.58,2.53h0V27a2.79,2.79,0,0,1-.58,1.95h4.94c-.8-.8-.57-1.49-.57-2.52h0V20l7.8,9h4.13A2.57,2.57,0,0,1,212,27.1V16.42Z" style="fill:#fff"/><path id="I" d="M193.22,27.1V16.76a2.72,2.72,0,0,1,.57-2.06h-4.94a2.45,2.45,0,0,1,.58,2.06V27.1a2.74,2.74,0,0,1-.58,2.06h4.94a3,3,0,0,1-.57-2.06" style="fill:#fff"/><path id="D" d="M179.67,14.58h-8.15c.8.8.57,1.49.57,2.53h0v9.41h0a3.66,3.66,0,0,1-.57,2.53h8.15a7.24,7.24,0,0,0,0-14.47Zm0,10.79h-3.79v-7h3.79a3.5,3.5,0,0,1,0,7Z" style="fill:#fff"/><path id="R" d="M166.12,24.91A5.83,5.83,0,0,0,169,20.09a5.47,5.47,0,0,0-5.28-5.51h-9.64a2.51,2.51,0,0,1,.57,2.07V27.09a2.87,2.87,0,0,1-.57,2H159a2.37,2.37,0,0,1-.57-1.61V25.6h3.33l3.1,3.45h4.94Zm-2.41-3h-5.28V18.14h5.28A1.77,1.77,0,0,1,165.2,20a1.66,1.66,0,0,1-1.33,1.93l-.16,0Z" style="fill:#fff"/><path id="A" d="M145.69,14.58h-5.06a1.86,1.86,0,0,1,0,2.07l-6,12.4h4.83a.74.74,0,0,1-.12-1l.46-1h7.81l.46,1c.11.46.11.8-.12,1h4.82Zm-4.14,8.73,2.07-4.37,2.06,4.37Z" style="fill:#fff"/><path id="N-2" data-name="N" d="M132.48,27.32V16.53a2.7,2.7,0,0,1,.58-1.83h-4.94c.8.8.57,1.49.57,2.52h0v6.2l-7.46-8.72h-4.47c.8.8.57,1.49.57,2.52h0V27.1a2.86,2.86,0,0,1-.57,1.95h4.93c-.8-.8-.57-1.49-.57-2.53h0V20.21l7.81,9h4.24a6.29,6.29,0,0,1-.69-1.84" style="fill:#fff"/><path id="anchor" d="M117,33.06l.57,1.38a36.25,36.25,0,0,1-9.18,2.07l-.93-23.42,7.81-1-7.92-1.15-.11-2.41a4.32,4.32,0,0,0,3.44-4.25A4.23,4.23,0,0,0,106.45,0h0a4.3,4.3,0,0,0-4.24,4.25,4.41,4.41,0,0,0,3.44,4.25l-.11,2.41-7.93,1.15,7.81,1-.92,23.42a48.18,48.18,0,0,1-9.18-2.06l.57-1.38-7.8-.8,6,4.82.57-1.38,11.83,4.94,11.82-4.95.57,1.38,6-4.82ZM104,4.25a2.41,2.41,0,1,1,2.41,2.41A2.36,2.36,0,0,1,104,4.36Z" style="fill:#fff"/><path id="E" d="M93.57,18a3.16,3.16,0,0,1,1.83.58v-4H81.51c.8.8.57,1.49.57,2.53h0v9.41h0a3.61,3.61,0,0,1-.57,2.53H95.4V25a2.53,2.53,0,0,1-1.83.57H85.76v-2h7.35V20.32H85.76V18.25h7.81Z" style="fill:#fff"/><path id="S" d="M67.73,18.94c0-.57.46-1,3.1-1a18.38,18.38,0,0,1,4.37.57,1.58,1.58,0,0,1,1.15.92L78,15.61a3.27,3.27,0,0,1-1.49-.11,19.29,19.29,0,0,0-6.43-1c-5.74,0-6.32,3.55-6.32,4.47,0,3.1,3,4,6.32,4.37s4.82.11,4.59,1.37c-.12.58-1.38,1.15-3.9,1.15a12.84,12.84,0,0,1-4.48-1h0c-.46-.35-.92-.46-1.15-1L63,27.55a5.26,5.26,0,0,1,1.37.12,16.86,16.86,0,0,0,6.78,1.49c4.93,0,7-2.41,7-4.82,0-3.33-3-3.9-6.2-4.25-1.38-.11-4.25.12-4.25-1.15" style="fill:#fff"/><path id="S-2" data-name="S" d="M50.4,18.94c0-.57.46-1,3.1-1a18.3,18.3,0,0,1,4.36.57A1.61,1.61,0,0,1,59,19.4l1.6-3.79a3.27,3.27,0,0,1-1.49-.11,18.84,18.84,0,0,0-6.31-1c-5.74,0-6.32,3.55-6.32,4.47,0,3.1,3,4,6.32,4.37s4.82.11,4.59,1.37c-.12.58-1.38,1.15-3.9,1.15a12.84,12.84,0,0,1-4.48-1h0c-.46-.35-.92-.46-1.15-1l-2.06,3.78a5.26,5.26,0,0,1,1.37.12A16.86,16.86,0,0,0,54,29.16c4.93,0,7-2.41,7-4.82,0-3.33-3-3.9-6.2-4.25-1.61-.11-4.37.12-4.37-1.15" style="fill:#fff"/><path id="Y" d="M39.38,23.42l6.42-8.84H40.4a.65.65,0,0,1,.27.88.64.64,0,0,1-.27.27h0l-2.87,3.79-3-4a.71.71,0,0,1,.08-1l0,0h-5.4l6.43,8.84v3.9A2.69,2.69,0,0,1,35.13,29h4.94a2.49,2.49,0,0,1-.58-1.83V23.42Z" style="fill:#fff"/><path id="L" d="M23.53,16.42a2.7,2.7,0,0,1,.58-1.84H19.17a2.55,2.55,0,0,1,.58,1.84V27.21a2.74,2.74,0,0,1-.58,1.84H31.92V24.68a2.52,2.52,0,0,1-1.84.57H23.53Z" style="fill:#fff"/><path id="U" d="M16,16.42a3.11,3.11,0,0,1,.57-1.84H11.6a2.32,2.32,0,0,1,.57,2v6.32a2.07,2.07,0,0,1-.57,1.49c-.57.8-1.84,1-3.33,1a5,5,0,0,1-3.33-1,2,2,0,0,1-.57-1.61V16.3a3.06,3.06,0,0,1,.57-1.83H0A2.69,2.69,0,0,1,.57,16.3v6.43A6.34,6.34,0,0,0,2.18,27c.92,1,2.87,2.07,6,2.07a8.62,8.62,0,0,0,6-2.07,6.53,6.53,0,0,0,1.61-4.25V16.42Z" style="fill:#fff"/></g></g></g></svg>